<svg width="97" height="84" viewBox="0 0 97 84" fill="none" xmlns="http://www.w3.org/2000/svg">
<path d="M14.104 36.16C12.968 36.16 12.064 35.928 11.392 35.464C10.72 34.9947 10.3067 34.3573 10.152 33.552H9.872L10.096 32.352C10.2453 33.2213 10.6587 33.8987 11.336 34.384C12.0133 34.8693 12.8773 35.112 13.928 35.112C14.8667 35.112 15.584 34.92 16.08 34.536C16.576 34.1467 16.824 33.5893 16.824 32.864C16.824 32.384 16.712 31.984 16.488 31.664C16.264 31.3387 15.9013 31.0747 15.4 30.872C14.904 30.664 14.24 30.4987 13.408 30.376C12.3787 30.2267 11.5333 30.0027 10.872 29.704C10.216 29.4053 9.728 29.024 9.408 28.56C9.088 28.096 8.928 27.544 8.928 26.904C8.928 25.928 9.26133 25.168 9.928 24.624C10.6 24.08 11.5227 23.808 12.696 23.808C13.432 23.808 14.056 23.9147 14.568 24.128C15.0853 24.336 15.4933 24.6373 15.792 25.032C16.0907 25.4267 16.2853 25.896 16.376 26.44H16.648L16.416 27.616C16.2773 26.752 15.8907 26.0773 15.256 25.592C14.6267 25.1013 13.8267 24.856 12.856 24.856C12.0187 24.856 11.3573 25.032 10.872 25.384C10.3867 25.7307 10.144 26.2187 10.144 26.848C10.144 27.2587 10.2587 27.6133 10.488 27.912C10.7173 28.2053 11.0853 28.456 11.592 28.664C12.0987 28.8667 12.7653 29.0427 13.592 29.192C14.6587 29.3573 15.5173 29.5893 16.168 29.888C16.8187 30.1867 17.2933 30.5733 17.592 31.048C17.896 31.5173 18.048 32.096 18.048 32.784C18.048 33.8507 17.704 34.68 17.016 35.272C16.328 35.864 15.3573 36.16 14.104 36.16ZM8.896 36V32.352H10.096V36H8.896ZM16.416 27.616V23.968H17.616V27.616H16.416ZM26.3366 36C26.118 36 25.95 35.9307 25.8326 35.792C25.7206 35.6533 25.6646 35.4587 25.6646 35.208V32.648L25.7686 32.384L25.7126 31.416L25.6646 30.912V30.264C25.6646 29.8267 25.574 29.4693 25.3926 29.192C25.2166 28.9147 24.9606 28.7093 24.6246 28.576C24.2886 28.4427 23.8833 28.376 23.4086 28.376C22.6993 28.376 22.15 28.5173 21.7606 28.8C21.3766 29.0773 21.1206 29.496 20.9926 30.056L19.8886 29.824C19.9953 29.264 20.1953 28.8 20.4886 28.432C20.782 28.0587 21.1713 27.7813 21.6566 27.6C22.1473 27.4133 22.7446 27.32 23.4486 27.32C24.1846 27.32 24.8006 27.424 25.2966 27.632C25.798 27.8347 26.1766 28.1467 26.4326 28.568C26.6886 28.9893 26.8166 29.5333 26.8166 30.2V35.008H28.0726V36H26.3366ZM22.3206 36.112C21.4353 36.112 20.7633 35.9173 20.3046 35.528C19.846 35.1333 19.6166 34.5547 19.6166 33.792C19.6166 33.088 19.8193 32.552 20.2246 32.184C20.63 31.8107 21.2806 31.5307 22.1766 31.344L26.0086 30.528V31.352L22.3686 32.176C21.846 32.2987 21.454 32.48 21.1926 32.72C20.9366 32.9547 20.8086 33.288 20.8086 33.72C20.8086 34.1893 20.9526 34.5413 21.2406 34.776C21.5286 35.0053 21.95 35.12 22.5046 35.12C23.118 35.12 23.6673 34.9787 24.1526 34.696C24.638 34.4133 25.0193 33.9973 25.2966 33.448C25.574 32.8987 25.7126 32.2213 25.7126 31.416L26.0166 33.304H25.6086C25.4753 34.1947 25.1286 34.8853 24.5686 35.376C24.014 35.8667 23.2646 36.112 22.3206 36.112ZM32.2894 35.008H33.8094V36H29.3854V35.008H31.1374V28.472H29.3854V27.48H32.2894V35.008ZM37.2014 35.008V30.552C37.2014 29.8533 37.044 29.304 36.7294 28.904C36.4147 28.504 35.9187 28.304 35.2414 28.304C34.692 28.304 34.1934 28.44 33.7454 28.712C33.2974 28.984 32.9427 29.3787 32.6814 29.896C32.42 30.4133 32.2894 31.04 32.2894 31.776L32.0254 30.072H32.3454C32.4467 29.4907 32.6414 28.9973 32.9294 28.592C33.2174 28.1813 33.5854 27.8693 34.0334 27.656C34.4867 27.4373 35.0067 27.328 35.5934 27.328C36.5214 27.328 37.212 27.5973 37.6654 28.136C38.124 28.6693 38.3534 29.424 38.3534 30.4V35.008H39.9934V36H35.7054V35.008H37.2014ZM48.5925 36V32.816L48.6405 32.192V31.176L48.5925 30.056V24.352H46.2965V23.36H49.7445V35.008H51.3765V36H48.5925ZM45.3845 27.32C46.0885 27.32 46.7178 27.4747 47.2725 27.784C47.8325 28.0933 48.2938 28.536 48.6565 29.112C49.0192 29.6827 49.2592 30.368 49.3765 31.168L48.6405 31.72C48.6405 31.064 48.5125 30.4827 48.2565 29.976C48.0058 29.4693 47.6458 29.0747 47.1765 28.792C46.7072 28.504 46.1498 28.36 45.5045 28.36C44.8698 28.36 44.3178 28.504 43.8485 28.792C43.3792 29.08 43.0165 29.4773 42.7605 29.984C42.5098 30.4907 42.3845 31.0773 42.3845 31.744C42.3845 32.4053 42.5152 32.9893 42.7765 33.496C43.0378 34.0027 43.4032 34.4027 43.8725 34.696C44.3472 34.984 44.8912 35.128 45.5045 35.128C46.1445 35.128 46.6965 34.984 47.1605 34.696C47.6298 34.4027 47.9925 34 48.2485 33.488C48.5098 32.976 48.6405 32.3867 48.6405 31.72L48.8165 33.536H48.5445C48.4485 34.0053 48.2618 34.44 47.9845 34.84C47.7072 35.2347 47.3418 35.5547 46.8885 35.8C46.4352 36.04 45.8912 36.16 45.2565 36.16C44.6645 36.16 44.1205 36.0533 43.6245 35.84C43.1285 35.6213 42.6992 35.3147 42.3365 34.92C41.9738 34.52 41.6912 34.0507 41.4885 33.512C41.2912 32.9733 41.1925 32.384 41.1925 31.744C41.1925 30.88 41.3658 30.1147 41.7125 29.448C42.0592 28.7813 42.5445 28.2613 43.1685 27.888C43.7978 27.5093 44.5365 27.32 45.3845 27.32ZM56.9504 36.152C56.0704 36.152 55.3077 35.9653 54.6624 35.592C54.017 35.2187 53.5184 34.704 53.1664 34.048C52.8144 33.3867 52.6384 32.6267 52.6384 31.768C52.6384 30.8987 52.8144 30.1307 53.1664 29.464C53.5237 28.7973 54.0197 28.2747 54.6544 27.896C55.2944 27.5173 56.0384 27.328 56.8864 27.328C57.7397 27.328 58.4784 27.5147 59.1024 27.888C59.7264 28.2613 60.2064 28.7787 60.5424 29.44C60.8784 30.1013 61.0464 30.864 61.0464 31.728C61.0464 31.8293 61.0437 31.9093 61.0384 31.968C61.0384 32.0267 61.033 32.0773 61.0224 32.12H59.8864C59.8917 32.056 59.8944 31.9867 59.8944 31.912C59.8997 31.832 59.9024 31.7413 59.9024 31.64C59.9024 31.0053 59.7797 30.4427 59.5344 29.952C59.2944 29.456 58.9504 29.0667 58.5024 28.784C58.0544 28.5013 57.5157 28.36 56.8864 28.36C56.273 28.36 55.7344 28.5067 55.2704 28.8C54.8064 29.088 54.4464 29.488 54.1904 30C53.9344 30.5067 53.8064 31.096 53.8064 31.768C53.8064 32.4187 53.9317 32.9947 54.1824 33.496C54.4384 33.992 54.801 34.3813 55.2704 34.664C55.7397 34.9467 56.297 35.088 56.9424 35.088C57.6144 35.088 58.1957 34.9307 58.6864 34.616C59.1824 34.296 59.5504 33.8613 59.7904 33.312L60.8784 33.72C60.5637 34.472 60.0597 35.0667 59.3664 35.504C58.6784 35.936 57.873 36.152 56.9504 36.152ZM53.3664 32.12V31.232H60.6784L61.0144 32.12H53.3664ZM65.5394 35.008H67.2034V36H62.6354V35.008H64.3874V28.472H62.6354V27.48H65.5394V35.008ZM68.8114 28.704C68.7154 28.6773 68.6114 28.656 68.4994 28.64C68.3927 28.624 68.2754 28.616 68.1474 28.616C67.358 28.616 66.726 28.912 66.2514 29.504C65.7767 30.0907 65.5394 30.9067 65.5394 31.952L65.2674 30.088H65.5954C65.67 29.5227 65.8247 29.0373 66.0594 28.632C66.294 28.2213 66.598 27.9067 66.9714 27.688C67.35 27.464 67.7927 27.352 68.2994 27.352C68.3954 27.352 68.4807 27.3573 68.5554 27.368C68.6354 27.3733 68.7207 27.384 68.8114 27.4V28.704ZM70.0755 23.944H71.7475V25.568H70.0755V23.944ZM70.9555 24.256H71.7475V26.184C71.7475 26.7067 71.5955 27.112 71.2915 27.4C70.9875 27.688 70.5795 27.832 70.0675 27.832V27.096C70.3448 27.096 70.5608 27.024 70.7155 26.88C70.8755 26.7307 70.9555 26.4987 70.9555 26.184V24.256ZM76.641 36.152C76.0703 36.152 75.5877 36.0667 75.193 35.896C74.8037 35.7253 74.4943 35.4987 74.265 35.216C74.0357 34.928 73.8863 34.608 73.817 34.256H73.529L73.761 33.312C73.8623 33.872 74.1397 34.328 74.593 34.68C75.0517 35.032 75.6463 35.208 76.377 35.208C77.001 35.208 77.4837 35.0827 77.825 34.832C78.1717 34.576 78.345 34.2053 78.345 33.72C78.345 33.2773 78.1743 32.9333 77.833 32.688C77.4917 32.4427 76.8943 32.256 76.041 32.128C74.8197 31.936 73.9503 31.6347 73.433 31.224C72.9157 30.808 72.657 30.2613 72.657 29.584C72.657 28.9013 72.8943 28.3547 73.369 27.944C73.8437 27.5333 74.505 27.328 75.353 27.328C75.913 27.328 76.3743 27.4133 76.737 27.584C77.105 27.7547 77.3877 27.984 77.585 28.272C77.7823 28.5547 77.9103 28.8667 77.969 29.208H78.257L78.025 30.112C77.929 29.568 77.6677 29.1253 77.241 28.784C76.8143 28.4373 76.257 28.264 75.569 28.264C75.0143 28.264 74.5797 28.3813 74.265 28.616C73.9557 28.8507 73.801 29.1627 73.801 29.552C73.801 29.9627 73.9957 30.2853 74.385 30.52C74.7743 30.7493 75.3877 30.9307 76.225 31.064C77.409 31.2507 78.249 31.5573 78.745 31.984C79.241 32.4107 79.489 32.9867 79.489 33.712C79.489 34.4747 79.2437 35.072 78.753 35.504C78.2677 35.936 77.5637 36.152 76.641 36.152ZM72.609 36V33.312H73.761V36H72.609ZM78.025 30.112V27.48H79.177V30.112H78.025ZM15.856 56L11.528 44.976L12.4 43.968L16.648 54.848H16.328L20.584 43.968L21.368 44.976L17.032 56H15.856ZM8.44 56V54.904H10.376V45.064H8.44V43.968H12.392L12.256 45.064H11.504V54.904H13.512V56H8.44ZM19.344 56V54.904H21.392V45.064H20.552L20.576 43.968H24.52V45.064H22.584V54.904H24.52V56H19.344ZM32.5398 56C32.3211 56 32.1531 55.9307 32.0358 55.792C31.9238 55.6533 31.8678 55.4587 31.8678 55.208V52.648L31.9718 52.384L31.9158 51.416L31.8678 50.912V50.264C31.8678 49.8267 31.7771 49.4693 31.5958 49.192C31.4198 48.9147 31.1638 48.7093 30.8278 48.576C30.4918 48.4427 30.0864 48.376 29.6118 48.376C28.9024 48.376 28.3531 48.5173 27.9638 48.8C27.5798 49.0773 27.3238 49.496 27.1957 50.056L26.0918 49.824C26.1984 49.264 26.3984 48.8 26.6918 48.432C26.9851 48.0587 27.3744 47.7813 27.8598 47.6C28.3504 47.4133 28.9478 47.32 29.6518 47.32C30.3878 47.32 31.0038 47.424 31.4998 47.632C32.0011 47.8347 32.3798 48.1467 32.6358 48.568C32.8918 48.9893 33.0198 49.5333 33.0198 50.2V55.008H34.2758V56H32.5398ZM28.5238 56.112C27.6384 56.112 26.9664 55.9173 26.5078 55.528C26.0491 55.1333 25.8198 54.5547 25.8198 53.792C25.8198 53.088 26.0224 52.552 26.4278 52.184C26.8331 51.8107 27.4838 51.5307 28.3798 51.344L32.2118 50.528V51.352L28.5718 52.176C28.0491 52.2987 27.6571 52.48 27.3958 52.72C27.1398 52.9547 27.0118 53.288 27.0118 53.72C27.0118 54.1893 27.1558 54.5413 27.4438 54.776C27.7318 55.0053 28.1531 55.12 28.7078 55.12C29.3211 55.12 29.8704 54.9787 30.3558 54.696C30.8411 54.4133 31.2224 53.9973 31.4998 53.448C31.7771 52.8987 31.9158 52.2213 31.9158 51.416L32.2198 53.304H31.8118C31.6784 54.1947 31.3318 54.8853 30.7718 55.376C30.2171 55.8667 29.4678 56.112 28.5238 56.112ZM37.8685 53.744C37.8685 54.192 37.9538 54.5307 38.1245 54.76C38.2952 54.984 38.5565 55.096 38.9085 55.096C39.2552 55.096 39.5165 54.9813 39.6925 54.752C39.8685 54.5173 39.9565 54.1813 39.9565 53.744V52.952H40.9965V53.736C40.9965 54.248 40.9192 54.6853 40.7645 55.048C40.6152 55.4053 40.3858 55.68 40.0765 55.872C39.7672 56.0587 39.3698 56.152 38.8845 56.152C38.3885 56.152 37.9805 56.056 37.6605 55.864C37.3405 55.6667 37.1032 55.3893 36.9485 55.032C36.7938 54.6747 36.7165 54.2453 36.7165 53.744L36.7245 48.472H35.2045V47.48H36.7245V45.32H37.8765V47.48H40.8845L40.8765 48.472H37.8765L37.8685 53.744ZM43.5009 56.176V44.352H41.7889V43.36H44.6529V50.464L44.6049 51.464V52.528L44.6529 54.08L43.6049 56.176H43.5009ZM47.8129 56.16C47.0982 56.16 46.4582 56.0267 45.8929 55.76C45.3329 55.488 44.8689 55.104 44.5009 54.608C44.1382 54.1067 43.8955 53.512 43.7729 52.824L44.6049 51.744C44.6049 52.4 44.7302 52.9813 44.9809 53.488C45.2315 53.9947 45.5915 54.3947 46.0609 54.688C46.5302 54.976 47.0875 55.12 47.7329 55.12C48.3889 55.12 48.9489 54.9787 49.4129 54.696C49.8822 54.4133 50.2395 54.0187 50.4849 53.512C50.7355 53 50.8609 52.4053 50.8609 51.728C50.8609 51.0667 50.7275 50.4827 50.4609 49.976C50.1995 49.4693 49.8342 49.072 49.3649 48.784C48.8955 48.496 48.3515 48.352 47.7329 48.352C47.0982 48.352 46.5462 48.496 46.0769 48.784C45.6075 49.072 45.2449 49.4693 44.9889 49.976C44.7329 50.4827 44.6049 51.072 44.6049 51.744L44.4209 49.944H44.6929C44.7942 49.4747 44.9809 49.0427 45.2529 48.648C45.5302 48.248 45.8955 47.928 46.3489 47.688C46.8075 47.4427 47.3542 47.32 47.9889 47.32C48.5809 47.32 49.1249 47.4293 49.6209 47.648C50.1169 47.8613 50.5462 48.168 50.9089 48.568C51.2715 48.9627 51.5515 49.432 51.7489 49.976C51.9462 50.5147 52.0449 51.1067 52.0449 51.752C52.0449 52.6107 51.8689 53.3733 51.5169 54.04C51.1702 54.7013 50.6795 55.2213 50.0449 55.6C49.4102 55.9733 48.6662 56.16 47.8129 56.16ZM56.1831 55.008H57.9351V56H53.2791V55.008H55.0311V44.352H53.2791V43.36H56.1831V55.008ZM63.5388 56.152C62.6534 56.152 61.8774 55.9653 61.2108 55.592C60.5441 55.2133 60.0241 54.696 59.6508 54.04C59.2774 53.384 59.0908 52.6267 59.0908 51.768C59.0908 50.904 59.2774 50.1387 59.6508 49.472C60.0241 48.8 60.5441 48.2747 61.2108 47.896C61.8774 47.5173 62.6534 47.328 63.5388 47.328C64.4241 47.328 65.2001 47.5173 65.8668 47.896C66.5334 48.2747 67.0534 48.8 67.4268 49.472C67.8001 50.1387 67.9868 50.904 67.9868 51.768C67.9868 52.6267 67.8001 53.384 67.4268 54.04C67.0534 54.696 66.5334 55.2133 65.8668 55.592C65.2001 55.9653 64.4241 56.152 63.5388 56.152ZM63.5388 55.088C64.1788 55.088 64.7414 54.9493 65.2268 54.672C65.7174 54.3947 66.0988 54.008 66.3708 53.512C66.6481 53.0107 66.7868 52.4293 66.7868 51.768C66.7868 51.1013 66.6481 50.5147 66.3708 50.008C66.0988 49.5013 65.7174 49.1067 65.2268 48.824C64.7414 48.536 64.1788 48.392 63.5388 48.392C62.8988 48.392 62.3334 48.536 61.8428 48.824C61.3574 49.1067 60.9761 49.5013 60.6988 50.008C60.4268 50.5147 60.2908 51.1013 60.2908 51.768C60.2908 52.4293 60.4268 53.0107 60.6988 53.512C60.9761 54.008 61.3574 54.3947 61.8428 54.672C62.3334 54.9493 62.8988 55.088 63.5388 55.088ZM73.7874 59.536C73.0407 59.536 72.3634 59.464 71.7554 59.32C71.1527 59.1813 70.6727 58.96 70.3154 58.656C69.958 58.352 69.7794 57.9493 69.7794 57.448C69.7794 56.9467 69.958 56.5653 70.3154 56.304C70.678 56.048 71.1447 55.88 71.7154 55.8V55.664L73.1394 55.8C72.5474 55.8 72.0834 55.8693 71.7474 56.008C71.4114 56.152 71.174 56.3333 71.0354 56.552C70.8967 56.776 70.8274 57.0053 70.8274 57.24C70.8274 57.6027 70.9607 57.8853 71.2274 58.088C71.494 58.2907 71.8514 58.4347 72.2994 58.52C72.7527 58.6053 73.2594 58.648 73.8194 58.648C74.9447 58.648 75.766 58.496 76.2834 58.192C76.806 57.8933 77.0674 57.4747 77.0674 56.936C77.0674 56.1787 76.5767 55.8 75.5954 55.8H72.3314C71.6914 55.8 71.1874 55.6853 70.8194 55.456C70.4567 55.2213 70.2754 54.8853 70.2754 54.448C70.2754 54.032 70.4407 53.7147 70.7714 53.496C71.102 53.272 71.574 53.136 72.1874 53.088V52.848L73.6434 53.264H72.7714C72.3127 53.264 71.9634 53.328 71.7234 53.456C71.4834 53.5787 71.3634 53.768 71.3634 54.024C71.3634 54.264 71.4727 54.4373 71.6914 54.544C71.9154 54.6453 72.2514 54.696 72.6994 54.696H75.5634C76.1127 54.696 76.5794 54.7867 76.9634 54.968C77.3527 55.144 77.646 55.3973 77.8434 55.728C78.046 56.0587 78.1474 56.4533 78.1474 56.912C78.1474 57.4027 78.0087 57.8453 77.7314 58.24C77.454 58.64 76.9954 58.9547 76.3554 59.184C75.7207 59.4187 74.8647 59.536 73.7874 59.536ZM73.6434 53.264C72.966 53.264 72.3634 53.1413 71.8354 52.896C71.3074 52.6507 70.8914 52.3067 70.5874 51.864C70.2834 51.4213 70.1314 50.9013 70.1314 50.304C70.1314 49.7067 70.2807 49.1867 70.5794 48.744C70.8834 48.296 71.2967 47.9493 71.8194 47.704C72.3474 47.4533 72.9554 47.328 73.6434 47.328C74.342 47.328 74.958 47.4587 75.4914 47.72C76.03 47.9813 76.4407 48.344 76.7234 48.808C76.862 49.0213 76.9634 49.2533 77.0274 49.504C77.0967 49.7493 77.1314 50.016 77.1314 50.304C77.1314 50.9013 76.982 51.4213 76.6834 51.864C76.3847 52.3067 75.9714 52.6507 75.4434 52.896C74.9207 53.1413 74.3207 53.264 73.6434 53.264ZM73.6434 52.32C74.0967 52.32 74.4994 52.2373 74.8514 52.072C75.2087 51.9067 75.4887 51.672 75.6914 51.368C75.8994 51.064 76.0034 50.7093 76.0034 50.304C76.0034 49.8987 75.8994 49.544 75.6914 49.24C75.4887 48.9307 75.2087 48.6933 74.8514 48.528C74.4994 48.3573 74.0967 48.272 73.6434 48.272C73.1794 48.272 72.7687 48.3573 72.4114 48.528C72.054 48.6933 71.7714 48.9307 71.5634 49.24C71.3607 49.544 71.2594 49.8987 71.2594 50.304C71.2594 50.7093 71.3607 51.064 71.5634 51.368C71.7714 51.672 72.054 51.9067 72.4114 52.072C72.774 52.2373 73.1847 52.32 73.6434 52.32ZM77.1314 50.304L76.7314 49.368L76.3794 48.792L76.6994 48.664C76.6834 48.6107 76.67 48.5573 76.6594 48.504C76.654 48.4453 76.6514 48.384 76.6514 48.32C76.6514 48.096 76.7047 47.8933 76.8114 47.712C76.918 47.5307 77.0727 47.3867 77.2754 47.28C77.478 47.1733 77.726 47.12 78.0194 47.12C78.094 47.12 78.1607 47.1227 78.2194 47.128C78.2834 47.1333 78.3447 47.144 78.4034 47.16V48.272C78.302 48.256 78.2087 48.2453 78.1234 48.24C78.038 48.2293 77.9527 48.224 77.8674 48.224C77.6434 48.224 77.462 48.256 77.3234 48.32C77.19 48.384 77.094 48.4667 77.0354 48.568C76.9767 48.664 76.9474 48.7707 76.9474 48.888C76.9474 49 76.9634 49.1227 76.9954 49.256C77.0274 49.384 77.0567 49.5333 77.0834 49.704C77.1154 49.8747 77.1314 50.0747 77.1314 50.304ZM83.803 59.536C83.0563 59.536 82.379 59.464 81.771 59.32C81.1683 59.1813 80.6883 58.96 80.331 58.656C79.9737 58.352 79.795 57.9493 79.795 57.448C79.795 56.9467 79.9737 56.5653 80.331 56.304C80.6937 56.048 81.1603 55.88 81.731 55.8V55.664L83.155 55.8C82.563 55.8 82.099 55.8693 81.763 56.008C81.427 56.152 81.1897 56.3333 81.051 56.552C80.9123 56.776 80.843 57.0053 80.843 57.24C80.843 57.6027 80.9763 57.8853 81.243 58.088C81.5097 58.2907 81.867 58.4347 82.315 58.52C82.7683 58.6053 83.275 58.648 83.835 58.648C84.9603 58.648 85.7817 58.496 86.299 58.192C86.8217 57.8933 87.083 57.4747 87.083 56.936C87.083 56.1787 86.5923 55.8 85.611 55.8H82.347C81.707 55.8 81.203 55.6853 80.835 55.456C80.4723 55.2213 80.291 54.8853 80.291 54.448C80.291 54.032 80.4563 53.7147 80.787 53.496C81.1177 53.272 81.5897 53.136 82.203 53.088V52.848L83.659 53.264H82.787C82.3283 53.264 81.979 53.328 81.739 53.456C81.499 53.5787 81.379 53.768 81.379 54.024C81.379 54.264 81.4883 54.4373 81.707 54.544C81.931 54.6453 82.267 54.696 82.715 54.696H85.579C86.1283 54.696 86.595 54.7867 86.979 54.968C87.3683 55.144 87.6617 55.3973 87.859 55.728C88.0617 56.0587 88.163 56.4533 88.163 56.912C88.163 57.4027 88.0243 57.8453 87.747 58.24C87.4697 58.64 87.011 58.9547 86.371 59.184C85.7363 59.4187 84.8803 59.536 83.803 59.536ZM83.659 53.264C82.9817 53.264 82.379 53.1413 81.851 52.896C81.323 52.6507 80.907 52.3067 80.603 51.864C80.299 51.4213 80.147 50.9013 80.147 50.304C80.147 49.7067 80.2963 49.1867 80.595 48.744C80.899 48.296 81.3123 47.9493 81.835 47.704C82.363 47.4533 82.971 47.328 83.659 47.328C84.3577 47.328 84.9737 47.4587 85.507 47.72C86.0457 47.9813 86.4563 48.344 86.739 48.808C86.8777 49.0213 86.979 49.2533 87.043 49.504C87.1123 49.7493 87.147 50.016 87.147 50.304C87.147 50.9013 86.9977 51.4213 86.699 51.864C86.4003 52.3067 85.987 52.6507 85.459 52.896C84.9363 53.1413 84.3363 53.264 83.659 53.264ZM83.659 52.32C84.1123 52.32 84.515 52.2373 84.867 52.072C85.2243 51.9067 85.5043 51.672 85.707 51.368C85.915 51.064 86.019 50.7093 86.019 50.304C86.019 49.8987 85.915 49.544 85.707 49.24C85.5043 48.9307 85.2243 48.6933 84.867 48.528C84.515 48.3573 84.1123 48.272 83.659 48.272C83.195 48.272 82.7843 48.3573 82.427 48.528C82.0697 48.6933 81.787 48.9307 81.579 49.24C81.3763 49.544 81.275 49.8987 81.275 50.304C81.275 50.7093 81.3763 51.064 81.579 51.368C81.787 51.672 82.0697 51.9067 82.427 52.072C82.7897 52.2373 83.2003 52.32 83.659 52.32ZM87.147 50.304L86.747 49.368L86.395 48.792L86.715 48.664C86.699 48.6107 86.6857 48.5573 86.675 48.504C86.6697 48.4453 86.667 48.384 86.667 48.32C86.667 48.096 86.7203 47.8933 86.827 47.712C86.9337 47.5307 87.0883 47.3867 87.291 47.28C87.4937 47.1733 87.7417 47.12 88.035 47.12C88.1097 47.12 88.1763 47.1227 88.235 47.128C88.299 47.1333 88.3603 47.144 88.419 47.16V48.272C88.3177 48.256 88.2243 48.2453 88.139 48.24C88.0537 48.2293 87.9683 48.224 87.883 48.224C87.659 48.224 87.4777 48.256 87.339 48.32C87.2057 48.384 87.1097 48.4667 87.051 48.568C86.9923 48.664 86.963 48.7707 86.963 48.888C86.963 49 86.979 49.1227 87.011 49.256C87.043 49.384 87.0723 49.5333 87.099 49.704C87.131 49.8747 87.147 50.0747 87.147 50.304Z" fill="black"/>
<rect y="61" width="97" height="23" rx="10" fill="#F9C16E"/>
<path d="M97 21C97 18.2422 95.7455 15.5115 93.3082 12.9636C90.8708 10.4158 87.2983 8.10079 82.7947 6.15076C78.291 4.20073 72.9444 2.65388 67.0601 1.59853C61.1759 0.543181 54.8691 -1.20545e-07 48.5 0C42.1309 1.20546e-07 35.8241 0.543181 29.9399 1.59853C24.0556 2.65388 18.709 4.20073 14.2053 6.15076C9.70168 8.10079 6.12919 10.4158 3.69184 12.9636C1.25449 15.5115 -5.56805e-07 18.2422 0 21L48.5 21H97Z" fill="#F9C16E"/>
<ellipse cx="7.56153" cy="15.1596" rx="1" ry="4.5" transform="rotate(38.0598 7.56153 15.1596)" fill="white"/>
<ellipse cx="17.506" cy="11.1962" rx="1" ry="4.5" transform="rotate(36.9849 17.506 11.1962)" fill="white"/>
<ellipse cx="23.506" cy="15.1962" rx="1" ry="4.5" transform="rotate(36.9849 23.506 15.1962)" fill="white"/>
<ellipse cx="32" cy="14.5" rx="1" ry="4.5" transform="rotate(32.6786 32 14.5)" fill="white"/>
<ellipse cx="40.2714" cy="5.32763" rx="1" ry="4.5" transform="rotate(32.6786 40.2714 5.32763)" fill="white"/>
<ellipse cx="30.2714" cy="6.32763" rx="1" ry="4.5" transform="rotate(32.6786 30.2714 6.32763)" fill="white"/>
<ellipse cx="39.1425" cy="14.6049" rx="1" ry="4.5" transform="rotate(15.1659 39.1425 14.6049)" fill="white"/>
<ellipse cx="46" cy="14.5" rx="1" ry="4.5" fill="white"/>
<ellipse cx="52.8672" cy="14.6088" rx="1" ry="4.5" transform="rotate(-11.365 52.8672 14.6088)" fill="white"/>
<ellipse cx="59.5563" cy="14.5577" rx="1" ry="4.5" transform="rotate(-21.1503 59.5563 14.5577)" fill="white"/>
<ellipse cx="53.5563" cy="5.55767" rx="1" ry="4.5" transform="rotate(-21.1503 53.5563 5.55767)" fill="white"/>
<ellipse cx="69.4835" cy="14.5699" rx="1" ry="4.5" transform="rotate(-29.9494 69.4835 14.5699)" fill="white"/>
<ellipse cx="73.113" cy="8.39834" rx="1" ry="4.5" transform="rotate(-29.9494 73.113 8.39834)" fill="white"/>
<ellipse cx="48.1061" cy="5.71552" rx="1" ry="2.67774" transform="rotate(-2.28776 48.1061 5.71552)" fill="white"/>
<ellipse cx="82.113" cy="15.3983" rx="1" ry="4.5" transform="rotate(-29.9494 82.113 15.3983)" fill="white"/>
<ellipse cx="63.113" cy="9.39834" rx="1" ry="4.5" transform="rotate(-29.9494 63.113 9.39834)" fill="white"/>
<rect x="16" y="81" width="64" height="2" rx="1" fill="white" fill-opacity="0.5"/>
</svg>
